<svg width="20" height="18" viewBox="0 0 20 18" fill="none" xmlns="http://www.w3.org/2000/svg">
<path d="M9.97068 10.1077C12.9326 10.1077 15.3079 7.83692 15.3079 5.06769C15.3079 2.29846 12.9326 0 9.97068 0C7.0088 0 4.63343 2.27077 4.63343 5.04C4.63343 7.80923 7.0088 10.1077 9.97068 10.1077ZM9.97068 1.32923C12.1408 1.32923 13.9003 2.99077 13.9003 5.04C13.9003 7.08923 12.1408 8.75077 9.97068 8.75077C7.80059 8.75077 6.04106 7.11692 6.04106 5.06769C6.04106 3.01846 7.80059 1.32923 9.97068 1.32923ZM0.703812 18H19.2962C19.6774 18 20 17.6954 20 17.3354C20 13.8462 16.9795 10.9938 13.2845 10.9938H6.71554C3.02053 10.9938 0 13.8462 0 17.3354C0 17.6954 0.322581 18 0.703812 18ZM6.71554 12.3231H13.2845C15.9824 12.3231 18.1818 14.2062 18.5337 16.6708H1.46628C1.81818 14.2062 4.0176 12.3231 6.71554 12.3231Z" fill="white"/>
</svg>
