<svg width="495" height="548" viewBox="0 0 495 548" fill="none" xmlns="http://www.w3.org/2000/svg">
<g filter="url(#filter0_dd_325_3)">
<rect x="50" y="50" width="365" height="418" rx="10" fill="#2F2F2F"/>
</g>
<path d="M137.008 135.2C137.819 136.011 138.224 137.056 138.224 138.336C138.224 139.403 137.989 140.491 137.52 141.6L122.416 180L121.712 180.32L113.264 153.504L102.832 180L102.128 180.32L87.92 135.2H93.36L104.816 173.088L112.944 152.48L107.504 135.2H112.944L124.4 173.088L136.752 141.6C137.221 140.533 137.456 139.424 137.456 138.272C137.456 137.12 137.136 136.224 136.496 135.584L137.008 135.2ZM144.475 164.384C144.475 169.675 145.392 173.557 147.227 176.032C149.104 178.507 151.557 179.744 154.587 179.744C158.853 179.744 162.651 179.104 165.979 177.824L166.171 178.272C162.757 179.595 158.896 180.256 154.587 180.256C150.32 180.256 146.843 178.976 144.155 176.416C141.467 173.856 140.123 169.909 140.123 164.576C140.123 159.243 141.531 155.104 144.347 152.16C147.163 149.216 150.747 147.744 155.099 147.744C158.597 147.744 161.541 148.789 163.931 150.88C166.32 152.971 167.515 156.064 167.515 160.16C167.515 160.373 167.515 160.587 167.515 160.8H144.667C144.539 161.952 144.475 163.147 144.475 164.384ZM163.163 160.288C163.12 156.192 162.331 153.163 160.795 151.2C159.259 149.237 157.275 148.256 154.843 148.256C152.411 148.256 150.235 149.323 148.315 151.456C146.437 153.589 145.243 156.533 144.731 160.288H163.163ZM216.721 137.888C212.838 136.395 209.169 135.648 205.713 135.648C202.3 135.648 199.633 136.373 197.713 137.824C195.793 139.275 194.833 141.28 194.833 143.84C194.833 146.955 196.454 149.365 199.697 151.072C201.148 151.797 202.726 152.48 204.433 153.12C206.182 153.717 207.932 154.4 209.681 155.168C211.43 155.936 213.03 156.811 214.481 157.792C215.932 158.773 217.105 160.139 218.001 161.888C218.897 163.595 219.345 165.792 219.345 168.48C219.345 171.125 218.598 173.387 217.105 175.264C215.612 177.141 213.798 178.421 211.665 179.104C209.574 179.744 207.121 180.064 204.305 180.064C199.057 180.064 194.577 178.763 190.865 176.16L191.185 175.648C192.593 176.757 194.406 177.675 196.625 178.4C198.886 179.083 201.19 179.424 203.537 179.424C206.993 179.424 209.937 178.635 212.369 177.056C214.844 175.435 216.081 173.067 216.081 169.952C216.081 166.539 214.46 163.872 211.217 161.952C209.766 161.099 208.166 160.309 206.417 159.584C204.71 158.859 202.982 158.112 201.233 157.344C199.484 156.533 197.884 155.637 196.433 154.656C193.19 152.523 191.569 149.493 191.569 145.568C191.569 142.453 192.614 139.936 194.705 138.016C196.796 136.053 199.932 135.072 204.113 135.072C208.337 135.072 212.625 135.797 216.977 137.248L216.721 137.888ZM223.803 148.512V148H225.147V141.6H229.627V148H239.419V148.512H229.627V171.808C229.627 174.581 229.925 176.587 230.523 177.824C231.163 179.061 232.464 179.68 234.427 179.68C236.432 179.68 238.459 179.275 240.507 178.464L240.699 178.976C238.565 179.787 236.112 180.192 233.339 180.192C230.608 180.192 228.56 179.637 227.195 178.528C225.829 177.376 225.147 175.115 225.147 171.744V148.512H223.803ZM255.784 150.752V149.408C253.864 150.176 252.115 151.733 250.536 154.08C248.957 156.384 248.125 158.56 248.04 160.608V180H243.56V148H248.04V158.176C248.723 155.701 250.024 153.376 251.944 151.2C253.864 148.981 256.04 147.829 258.472 147.744H258.728C259.581 147.744 260.285 148.043 260.84 148.64C261.437 149.195 261.736 149.899 261.736 150.752C261.736 151.605 261.437 152.309 260.84 152.864C260.285 153.419 259.581 153.696 258.728 153.696C257.875 153.696 257.171 153.419 256.616 152.864C256.061 152.309 255.784 151.605 255.784 150.752ZM273.088 180C271.339 180 269.995 179.616 269.056 178.848C268.16 178.08 267.691 177.312 267.648 176.544L267.584 175.456V148H272.064V175.456C272.064 176.693 272.299 177.653 272.768 178.336C273.28 178.976 273.771 179.317 274.24 179.36L275.008 179.488H276.992V180H273.088ZM267.968 140.832C267.456 140.32 267.2 139.68 267.2 138.912C267.2 138.144 267.456 137.504 267.968 136.992C268.48 136.437 269.12 136.16 269.888 136.16C270.656 136.16 271.296 136.437 271.808 136.992C272.363 137.504 272.64 138.144 272.64 138.912C272.64 139.68 272.363 140.32 271.808 140.832C271.296 141.344 270.656 141.6 269.888 141.6C269.12 141.6 268.48 141.344 267.968 140.832ZM301.926 148.384L302.31 148C302.481 148.085 302.694 148.341 302.95 148.768C303.249 149.195 303.419 149.579 303.462 149.92C303.547 150.261 303.59 150.581 303.59 150.88C303.59 152.032 303.334 153.205 302.822 154.4L290.534 180H289.894L277.99 148H282.47L292.262 174.496L302.182 154.4C302.694 153.504 302.95 152.437 302.95 151.2C302.95 149.963 302.609 149.024 301.926 148.384ZM311.475 164.384C311.475 169.675 312.392 173.557 314.227 176.032C316.104 178.507 318.557 179.744 321.587 179.744C325.853 179.744 329.651 179.104 332.979 177.824L333.171 178.272C329.757 179.595 325.896 180.256 321.587 180.256C317.32 180.256 313.843 178.976 311.155 176.416C308.467 173.856 307.123 169.909 307.123 164.576C307.123 159.243 308.531 155.104 311.347 152.16C314.163 149.216 317.747 147.744 322.099 147.744C325.597 147.744 328.541 148.789 330.931 150.88C333.32 152.971 334.515 156.064 334.515 160.16C334.515 160.373 334.515 160.587 334.515 160.8H311.667C311.539 161.952 311.475 163.147 311.475 164.384ZM330.163 160.288C330.12 156.192 329.331 153.163 327.795 151.2C326.259 149.237 324.275 148.256 321.843 148.256C319.411 148.256 317.235 149.323 315.315 151.456C313.437 153.589 312.243 156.533 311.731 160.288H330.163ZM94.064 211.992V215H99.12V215.512H94.064V247H89.584V215.512H88.24V215H89.584V211.992C89.584 207.341 90.5867 204.035 92.592 202.072C94.5973 200.067 97.84 199.043 102.32 199V199.512C99.376 199.555 97.264 200.557 95.984 202.52C94.704 204.44 94.064 207.597 94.064 211.992ZM118.103 247.256C113.623 247.256 109.975 245.976 107.159 243.416C104.343 240.856 102.935 236.909 102.935 231.576C102.935 226.243 104.386 222.104 107.287 219.16C110.231 216.216 113.943 214.744 118.423 214.744C122.946 214.744 126.615 216.024 129.431 218.584C132.247 221.144 133.655 225.091 133.655 230.424C133.655 235.757 132.183 239.896 129.239 242.84C126.338 245.784 122.626 247.256 118.103 247.256ZM118.551 215.256C115.308 215.256 112.62 216.707 110.487 219.608C108.354 222.467 107.287 226.477 107.287 231.64C107.287 236.76 108.268 240.557 110.231 243.032C112.194 245.507 114.796 246.744 118.039 246.744C121.282 246.744 123.97 245.315 126.103 242.456C128.236 239.555 129.303 235.544 129.303 230.424C129.303 225.261 128.322 221.443 126.359 218.968C124.396 216.493 121.794 215.256 118.551 215.256ZM149.722 217.752V216.408C147.802 217.176 146.052 218.733 144.474 221.08C142.895 223.384 142.063 225.56 141.978 227.608V247H137.498V215H141.978V225.176C142.66 222.701 143.962 220.376 145.882 218.2C147.802 215.981 149.978 214.829 152.41 214.744H152.666C153.519 214.744 154.223 215.043 154.778 215.64C155.375 216.195 155.674 216.899 155.674 217.752C155.674 218.605 155.375 219.309 154.778 219.864C154.223 220.419 153.519 220.696 152.666 220.696C151.812 220.696 151.108 220.419 150.554 219.864C149.999 219.309 149.722 218.605 149.722 217.752ZM90.48 269.712C95.4293 269.371 99.8027 269.2 103.6 269.2C114.139 269.2 119.408 272.72 119.408 279.76C119.408 282.405 118.64 284.688 117.104 286.608C115.568 288.485 113.115 289.765 109.744 290.448C112.987 290.832 115.547 291.813 117.424 293.392C119.301 294.971 120.24 297.723 120.24 301.648C120.24 309.883 114.971 314 104.432 314H90.48V269.712ZM95.792 313.36H104.432C108.229 313.36 110.917 312.379 112.496 310.416C114.117 308.411 114.928 305.36 114.928 301.264C114.928 297.168 114.117 294.437 112.496 293.072C110.875 291.707 108.464 290.981 105.264 290.896H95.792V313.36ZM103.6 269.84C101.125 269.84 98.5227 269.989 95.792 270.288V290.256H105.264C111.28 290 114.288 286.544 114.288 279.888C114.288 276.645 113.392 274.171 111.6 272.464C109.808 270.715 107.141 269.84 103.6 269.84ZM129.412 298.384C129.412 303.675 130.329 307.557 132.164 310.032C134.041 312.507 136.495 313.744 139.524 313.744C143.791 313.744 147.588 313.104 150.916 311.824L151.108 312.272C147.695 313.595 143.833 314.256 139.524 314.256C135.257 314.256 131.78 312.976 129.092 310.416C126.404 307.856 125.06 303.909 125.06 298.576C125.06 293.243 126.468 289.104 129.284 286.16C132.1 283.216 135.684 281.744 140.036 281.744C143.535 281.744 146.479 282.789 148.868 284.88C151.257 286.971 152.452 290.064 152.452 294.16C152.452 294.373 152.452 294.587 152.452 294.8H129.604C129.476 295.952 129.412 297.147 129.412 298.384ZM148.1 294.288C148.057 290.192 147.268 287.163 145.732 285.2C144.196 283.237 142.212 282.256 139.78 282.256C137.348 282.256 135.172 283.323 133.252 285.456C131.375 287.589 130.18 290.533 129.668 294.288H148.1ZM175.686 284.24C175.003 283.685 173.894 283.216 172.358 282.832C170.864 282.448 169.734 282.256 168.966 282.256C168.198 282.256 167.75 282.256 167.622 282.256C165.318 282.299 163.654 282.896 162.63 284.048C161.606 285.157 161.094 286.416 161.094 287.824C161.094 289.232 161.542 290.427 162.438 291.408C163.334 292.347 164.443 293.093 165.766 293.648C167.131 294.16 168.582 294.757 170.118 295.44C171.696 296.123 173.147 296.827 174.47 297.552C175.835 298.235 176.966 299.259 177.862 300.624C178.758 301.947 179.206 303.611 179.206 305.616C179.206 307.621 178.502 309.328 177.094 310.736C175.686 312.144 174.107 313.083 172.358 313.552C170.651 314.021 168.795 314.256 166.79 314.256C162.438 314.256 159.174 313.296 156.998 311.376L157.382 310.992C158.235 311.803 159.494 312.464 161.158 312.976C162.864 313.488 164.507 313.744 166.086 313.744C168.603 313.744 170.672 313.061 172.294 311.696C173.958 310.288 174.79 308.56 174.79 306.512C174.79 304.421 174.171 302.757 172.934 301.52C171.696 300.24 170.182 299.259 168.39 298.576C166.64 297.851 164.87 297.147 163.078 296.464C161.286 295.739 159.771 294.757 158.534 293.52C157.296 292.24 156.678 290.768 156.678 289.104C156.678 287.44 157.062 286.096 157.83 285.072C158.598 284.005 159.622 283.259 160.902 282.832C163.078 282.107 165.254 281.744 167.43 281.744C171.099 281.744 173.958 282.427 176.006 283.792L175.686 284.24ZM183.678 282.512V282H185.022V275.6H189.502V282H199.294V282.512H189.502V305.808C189.502 308.581 189.8 310.587 190.398 311.824C191.038 313.061 192.339 313.68 194.302 313.68C196.307 313.68 198.334 313.275 200.382 312.464L200.574 312.976C198.44 313.787 195.987 314.192 193.214 314.192C190.483 314.192 188.435 313.637 187.07 312.528C185.704 311.376 185.022 309.115 185.022 305.744V282.512H183.678ZM231.026 314C229.276 314 227.932 313.616 226.994 312.848C226.098 312.08 225.628 311.312 225.586 310.544L225.522 309.456V282H230.002V309.456C230.002 310.693 230.236 311.653 230.706 312.336C231.218 312.976 231.708 313.317 232.178 313.36L232.946 313.488H234.93V314H231.026ZM225.906 274.832C225.394 274.32 225.138 273.68 225.138 272.912C225.138 272.144 225.394 271.504 225.906 270.992C226.418 270.437 227.058 270.16 227.826 270.16C228.594 270.16 229.234 270.437 229.746 270.992C230.3 271.504 230.578 272.144 230.578 272.912C230.578 273.68 230.3 274.32 229.746 274.832C229.234 275.344 228.594 275.6 227.826 275.6C227.058 275.6 226.418 275.344 225.906 274.832ZM265.37 314C263.621 314 262.277 313.616 261.338 312.848C260.442 312.08 259.973 311.312 259.93 310.544L259.866 309.456V289.36C259.866 285.989 258.991 283.835 257.242 282.896C256.346 282.469 255.237 282.256 253.914 282.256C251.183 282.256 248.73 283.344 246.554 285.52C244.378 287.653 243.29 289.573 243.29 291.28V314H238.81V282H243.29V289.296C244.015 287.461 245.359 285.755 247.322 284.176C249.285 282.555 251.439 281.744 253.786 281.744C256.133 281.744 258.031 281.979 259.482 282.448C260.975 282.875 262.063 283.493 262.746 284.304C263.813 285.627 264.346 287.333 264.346 289.424V309.456C264.346 310.693 264.581 311.653 265.05 312.336C265.562 312.976 266.074 313.317 266.586 313.36L267.29 313.488H269.274V314H265.37ZM291.751 314H290.983L310.119 269.2L310.823 268.88L326.951 314H321.511L316.519 299.92H297.831L291.751 314ZM308.135 276.112L298.087 299.28H316.327L308.135 276.112ZM338.938 314C335.183 314 332.815 313.019 331.834 311.056C331.621 310.629 331.514 310.245 331.514 309.904V266.064H335.994V309.456C335.994 310.693 336.229 311.653 336.698 312.336C337.21 312.976 337.722 313.317 338.234 313.36L338.938 313.488H340.922V314H338.938ZM353.876 314C350.121 314 347.753 313.019 346.772 311.056C346.558 310.629 346.452 310.245 346.452 309.904V266.064H350.932V309.456C350.932 310.693 351.166 311.653 351.635 312.336C352.148 312.976 352.66 313.317 353.172 313.36L353.876 313.488H355.86V314H353.876ZM137.008 336.2C137.819 337.011 138.224 338.056 138.224 339.336C138.224 340.403 137.989 341.491 137.52 342.6L122.416 381L121.712 381.32L113.264 354.504L102.832 381L102.128 381.32L87.92 336.2H93.36L104.816 374.088L112.944 353.48L107.504 336.2H112.944L124.4 374.088L136.752 342.6C137.221 341.533 137.456 340.424 137.456 339.272C137.456 338.12 137.136 337.224 136.496 336.584L137.008 336.2ZM144.475 365.384C144.475 370.675 145.392 374.557 147.227 377.032C149.104 379.507 151.557 380.744 154.587 380.744C158.853 380.744 162.651 380.104 165.979 378.824L166.171 379.272C162.757 380.595 158.896 381.256 154.587 381.256C150.32 381.256 146.843 379.976 144.155 377.416C141.467 374.856 140.123 370.909 140.123 365.576C140.123 360.243 141.531 356.104 144.347 353.16C147.163 350.216 150.747 348.744 155.099 348.744C158.597 348.744 161.541 349.789 163.931 351.88C166.32 353.971 167.515 357.064 167.515 361.16C167.515 361.373 167.515 361.587 167.515 361.8H144.667C144.539 362.952 144.475 364.147 144.475 365.384ZM163.163 361.288C163.12 357.192 162.331 354.163 160.795 352.2C159.259 350.237 157.275 349.256 154.843 349.256C152.411 349.256 150.235 350.323 148.315 352.456C146.437 354.589 145.243 357.533 144.731 361.288H163.163ZM214.161 381.256C206.182 381.256 200.273 378.995 196.433 374.472C195.068 372.851 193.958 370.696 193.105 368.008C192.252 365.32 191.825 362.056 191.825 358.216C191.825 354.376 192.444 350.941 193.681 347.912C194.961 344.84 196.689 342.472 198.865 340.808C203.089 337.693 208.188 336.136 214.161 336.136C215.868 336.136 217.532 336.285 219.153 336.584C220.774 336.84 221.99 337.117 222.801 337.416L223.953 337.864L223.761 338.504C220.86 337.352 217.66 336.776 214.161 336.776C209.638 336.776 205.862 338.248 202.833 341.192C200.529 343.368 198.908 346.568 197.969 350.792C197.414 353.181 197.137 356.104 197.137 359.56C197.137 363.016 197.628 366.216 198.609 369.16C199.59 372.061 200.7 374.216 201.937 375.624C203.217 377.032 204.753 378.163 206.545 379.016C208.337 379.827 209.766 380.296 210.833 380.424C211.9 380.552 213.18 380.616 214.673 380.616C216.209 380.616 217.937 380.467 219.857 380.168C221.777 379.869 223.228 379.592 224.209 379.336L225.681 378.888L225.873 379.528C222.63 380.68 218.726 381.256 214.161 381.256ZM242.909 351.752V350.408C240.989 351.176 239.24 352.733 237.661 355.08C236.082 357.384 235.25 359.56 235.165 361.608V381H230.685V349H235.165V359.176C235.848 356.701 237.149 354.376 239.069 352.2C240.989 349.981 243.165 348.829 245.597 348.744H245.853C246.706 348.744 247.41 349.043 247.965 349.64C248.562 350.195 248.861 350.899 248.861 351.752C248.861 352.605 248.562 353.309 247.965 353.864C247.41 354.419 246.706 354.696 245.853 354.696C245 354.696 244.296 354.419 243.741 353.864C243.186 353.309 242.909 352.605 242.909 351.752ZM256.1 365.384C256.1 370.675 257.017 374.557 258.852 377.032C260.729 379.507 263.182 380.744 266.212 380.744C270.478 380.744 274.276 380.104 277.604 378.824L277.796 379.272C274.382 380.595 270.521 381.256 266.212 381.256C261.945 381.256 258.468 379.976 255.78 377.416C253.092 374.856 251.748 370.909 251.748 365.576C251.748 360.243 253.156 356.104 255.972 353.16C258.788 350.216 262.372 348.744 266.724 348.744C270.222 348.744 273.166 349.789 275.556 351.88C277.945 353.971 279.14 357.064 279.14 361.16C279.14 361.373 279.14 361.587 279.14 361.8H256.292C256.164 362.952 256.1 364.147 256.1 365.384ZM274.788 361.288C274.745 357.192 273.956 354.163 272.42 352.2C270.884 350.237 268.9 349.256 266.468 349.256C264.036 349.256 261.86 350.323 259.94 352.456C258.062 354.589 256.868 357.533 256.356 361.288H274.788ZM310.117 381C307.216 381 305.232 380.445 304.165 379.336C303.184 378.397 302.693 377.587 302.693 376.904V375.56C300.602 379.357 297.253 381.256 292.645 381.256C287.269 381.256 284.218 378.824 283.493 373.96C283.408 373.448 283.365 372.936 283.365 372.424C283.365 371.869 283.45 371.272 283.621 370.632C283.792 369.992 284.282 369.288 285.093 368.52C286.714 366.984 290.277 366.045 295.781 365.704C297.146 365.576 298.405 365.512 299.557 365.512C300.709 365.512 301.754 365.555 302.693 365.64V355.016C302.608 354.973 302.608 354.781 302.693 354.44C302.778 354.056 302.693 353.587 302.437 353.032C302.224 352.435 301.925 351.859 301.541 351.304C301.157 350.749 300.474 350.28 299.493 349.896C298.512 349.469 297.232 349.256 295.653 349.256C294.074 349.256 292.218 349.555 290.085 350.152C287.994 350.707 286.458 351.261 285.477 351.816L285.221 351.368C289.018 349.619 292.88 348.744 296.805 348.744C301.2 348.744 304.101 349.533 305.509 351.112C306.618 352.349 307.173 353.651 307.173 355.016V376.456C307.173 377.693 307.408 378.653 307.877 379.336C308.389 379.976 308.901 380.317 309.413 380.36L310.117 380.488H312.101V381H310.117ZM293.669 380.744C295.93 380.744 297.957 379.976 299.749 378.44C301.584 376.861 302.565 375.347 302.693 373.896V366.152C301.541 366.067 300.368 366.024 299.173 366.024C298.021 366.024 296.869 366.088 295.717 366.216C292.474 366.6 290.362 367.325 289.381 368.392C288.4 369.459 287.909 370.931 287.909 372.808C287.909 373.149 287.93 373.533 287.973 373.96C288.357 378.483 290.256 380.744 293.669 380.744ZM316.553 349.512V349H317.897V342.6H322.377V349H332.169V349.512H322.377V372.808C322.377 375.581 322.675 377.587 323.273 378.824C323.913 380.061 325.214 380.68 327.177 380.68C329.182 380.68 331.209 380.275 333.257 379.464L333.449 379.976C331.315 380.787 328.862 381.192 326.089 381.192C323.358 381.192 321.31 380.637 319.945 379.528C318.579 378.376 317.897 376.115 317.897 372.744V349.512H316.553ZM340.662 365.384C340.662 370.675 341.579 374.557 343.414 377.032C345.291 379.507 347.745 380.744 350.774 380.744C355.041 380.744 358.838 380.104 362.166 378.824L362.358 379.272C358.945 380.595 355.083 381.256 350.774 381.256C346.507 381.256 343.03 379.976 340.342 377.416C337.654 374.856 336.31 370.909 336.31 365.576C336.31 360.243 337.718 356.104 340.534 353.16C343.35 350.216 346.934 348.744 351.286 348.744C354.785 348.744 357.729 349.789 360.118 351.88C362.507 353.971 363.702 357.064 363.702 361.16C363.702 361.373 363.702 361.587 363.702 361.8H340.854C340.726 362.952 340.662 364.147 340.662 365.384ZM359.35 361.288C359.307 357.192 358.518 354.163 356.982 352.2C355.446 350.237 353.462 349.256 351.03 349.256C348.598 349.256 346.422 350.323 344.502 352.456C342.625 354.589 341.43 357.533 340.918 361.288H359.35Z" fill="white"/>
<defs>
<filter id="filter0_dd_325_3" x="0" y="0" width="495" height="548" filterUnits="userSpaceOnUse" color-interpolation-filters="sRGB">
<feFlood flood-opacity="0" result="BackgroundImageFix"/>
<feColorMatrix in="SourceAlpha" type="matrix" values="0 0 0 0 0 0 0 0 0 0 0 0 0 0 0 0 0 0 127 0" result="hardAlpha"/>
<feOffset dx="-20" dy="-20"/>
<feGaussianBlur stdDeviation="15"/>
<feComposite in2="hardAlpha" operator="out"/>
<feColorMatrix type="matrix" values="0 0 0 0 0 0 0 0 0 0 0 0 0 0 0 0 0 0 0.25 0"/>
<feBlend mode="normal" in2="BackgroundImageFix" result="effect1_dropShadow_325_3"/>
<feColorMatrix in="SourceAlpha" type="matrix" values="0 0 0 0 0 0 0 0 0 0 0 0 0 0 0 0 0 0 127 0" result="hardAlpha"/>
<feOffset dx="20" dy="20"/>
<feGaussianBlur stdDeviation="30"/>
<feComposite in2="hardAlpha" operator="out"/>
<feColorMatrix type="matrix" values="0 0 0 0 0.156863 0 0 0 0 0.156863 0 0 0 0 0.156863 0 0 0 0.25 0"/>
<feBlend mode="normal" in2="effect1_dropShadow_325_3" result="effect2_dropShadow_325_3"/>
<feBlend mode="normal" in="SourceGraphic" in2="effect2_dropShadow_325_3" result="shape"/>
</filter>
</defs>
</svg>
