<svg width="1280" height="779" viewBox="0 0 1280 779" fill="none" xmlns="http://www.w3.org/2000/svg">
<g filter="url(#filter0_dd_145_37)">
<path d="M179.657 122.492C136.85 69.246 35.1263 75.3811 0 90.9864V739H1279C1275.67 707.286 1257.19 640.033 1209.97 624.736C1162.75 609.439 1122.94 674.639 1070.42 679.303C990.887 679.303 975.083 618.997 969.932 600.97C937.9 536.48 854.723 421.017 764.305 449.897C673.886 478.776 610.251 410.801 589.685 378.65C557.107 319.049 477.622 185.893 391.485 243.843C305.349 301.793 274.432 317.696 259.745 295.41C226.985 282.437 233.165 189.049 179.657 122.492Z" fill="#2F2F2F"/>
</g>
<defs>
<filter id="filter0_dd_145_37" x="-80" y="0" width="1439" height="779" filterUnits="userSpaceOnUse" color-interpolation-filters="sRGB">
<feFlood flood-opacity="0" result="BackgroundImageFix"/>
<feColorMatrix in="SourceAlpha" type="matrix" values="0 0 0 0 0 0 0 0 0 0 0 0 0 0 0 0 0 0 127 0" result="hardAlpha"/>
<feOffset dx="-20" dy="-20"/>
<feGaussianBlur stdDeviation="30"/>
<feComposite in2="hardAlpha" operator="out"/>
<feColorMatrix type="matrix" values="0 0 0 0 0.12549 0 0 0 0 0.12549 0 0 0 0 0.12549 0 0 0 1 0"/>
<feBlend mode="normal" in2="BackgroundImageFix" result="effect1_dropShadow_145_37"/>
<feColorMatrix in="SourceAlpha" type="matrix" values="0 0 0 0 0 0 0 0 0 0 0 0 0 0 0 0 0 0 127 0" result="hardAlpha"/>
<feOffset dx="20" dy="-20"/>
<feGaussianBlur stdDeviation="30"/>
<feComposite in2="hardAlpha" operator="out"/>
<feColorMatrix type="matrix" values="0 0 0 0 0.211765 0 0 0 0 0.211765 0 0 0 0 0.211765 0 0 0 1 0"/>
<feBlend mode="normal" in2="effect1_dropShadow_145_37" result="effect2_dropShadow_145_37"/>
<feBlend mode="normal" in="SourceGraphic" in2="effect2_dropShadow_145_37" result="shape"/>
</filter>
</defs>
</svg>
