<svg width="70" height="70" viewBox="0 0 70 70" fill="none" xmlns="http://www.w3.org/2000/svg">
<circle cx="35" cy="35" r="35" fill="#2D2D2D"/>
<path d="M34.5 17C24.2816 17 16 24.4812 16 33.7143C16 37.7 17.5465 41.3482 20.1191 44.217C19.2158 48.267 16.1951 51.875 16.159 51.9152C16 52.1 15.9566 52.3732 16.0506 52.6143C16.1445 52.8554 16.3469 53 16.5781 53C21.3693 53 24.9609 50.4446 26.7387 48.8696C29.1018 49.858 31.725 50.4286 34.5 50.4286C44.7184 50.4286 53 42.9473 53 33.7143C53 24.4812 44.7184 17 34.5 17ZM25.25 36.2857C23.9709 36.2857 22.9375 35.1366 22.9375 33.7143C22.9375 32.292 23.9709 31.1429 25.25 31.1429C26.5291 31.1429 27.5625 32.292 27.5625 33.7143C27.5625 35.1366 26.5291 36.2857 25.25 36.2857ZM34.5 36.2857C33.2209 36.2857 32.1875 35.1366 32.1875 33.7143C32.1875 32.292 33.2209 31.1429 34.5 31.1429C35.7791 31.1429 36.8125 32.292 36.8125 33.7143C36.8125 35.1366 35.7791 36.2857 34.5 36.2857ZM43.75 36.2857C42.4709 36.2857 41.4375 35.1366 41.4375 33.7143C41.4375 32.292 42.4709 31.1429 43.75 31.1429C45.0291 31.1429 46.0625 32.292 46.0625 33.7143C46.0625 35.1366 45.0291 36.2857 43.75 36.2857Z" fill="white"/>
</svg>
