<svg width="50" height="51" viewBox="0 0 50 51" fill="none" xmlns="http://www.w3.org/2000/svg">
<path d="M49.9347 2.0301C48.8011 5.80997 46.5841 12.9394 43.9476 20.3617C44.6311 20.5662 45.2567 20.7524 45.7648 20.9081C45.9862 20.9755 46.19 21.0912 46.3615 21.2467C46.5329 21.4023 46.6678 21.5939 46.7565 21.8077C46.8452 22.0215 46.8854 22.2524 46.8744 22.4836C46.8633 22.7148 46.8012 22.9408 46.6925 23.1451C44.5335 27.276 38.6166 38.0677 32.7774 44.0847C32.6798 44.1915 32.5821 44.3289 32.4845 44.4265C28.9165 47.9954 24.0769 50.0008 19.0304 50.0014C13.9839 50.0021 9.14378 47.9979 5.57489 44.43C2.00599 40.862 0.000647246 36.0224 1.56652e-07 30.9759C-0.000646933 25.9294 2.00346 21.0893 5.57144 17.5204C5.66909 17.4227 5.8064 17.325 5.91321 17.2274C11.9293 11.3768 22.7089 5.46814 26.8498 3.3104C27.0542 3.20169 27.2801 3.13957 27.5113 3.12851C27.7425 3.11744 27.9734 3.1577 28.1872 3.24639C28.401 3.33508 28.5925 3.47001 28.748 3.64149C28.9036 3.81297 29.0192 4.01675 29.0866 4.2382C29.2422 4.73567 29.4284 5.37048 29.6328 6.05412C37.045 3.41722 44.1826 1.19997 47.9619 0.0676893C48.235 -0.0149069 48.5253 -0.0220516 48.8021 0.0470132C49.0789 0.116078 49.3319 0.258777 49.5341 0.459973C49.7364 0.661169 49.8804 0.91336 49.9509 1.18979C50.0215 1.46623 50.0159 1.7566 49.9347 2.0301ZM31.244 31.2512C31.2437 28.7792 30.5103 26.3628 29.1367 24.3075C27.7631 22.2523 25.8109 20.6505 23.5269 19.7048C21.243 18.759 18.7299 18.5117 16.3054 18.9942C13.8809 19.4767 11.654 20.6672 9.90611 22.4153C8.15825 24.1634 6.968 26.3906 6.48586 28.8151C6.00373 31.2397 6.25135 33.7527 7.19743 36.0365C8.14351 38.3203 9.74555 40.2723 11.801 41.6457C13.8564 43.019 16.2729 43.752 18.7449 43.752C20.3865 43.7521 22.012 43.4288 23.5286 42.8005C25.0452 42.1723 26.4232 41.2515 27.5839 40.0906C28.7446 38.9298 29.6652 37.5517 30.2932 36.035C30.9212 34.5183 31.2443 32.8927 31.244 31.2512ZM18.7449 28.126C18.7448 28.744 18.5615 29.3481 18.2181 29.8619C17.8747 30.3757 17.3866 30.7761 16.8156 31.0126C16.2447 31.249 15.6164 31.3108 15.0103 31.1902C14.4042 31.0696 13.8474 30.7719 13.4104 30.3349C12.9735 29.8979 12.6759 29.3411 12.5554 28.735C12.4349 28.1288 12.4968 27.5006 12.7333 26.9296C12.9698 26.3587 13.3703 25.8707 13.8842 25.5273C14.398 25.184 15.0021 25.0007 15.6202 25.0007C16.0307 25.0003 16.4373 25.0808 16.8166 25.2377C17.196 25.3946 17.5406 25.6248 17.8309 25.9151C18.1212 26.2054 18.3513 26.5501 18.5081 26.9295C18.665 27.3088 18.7455 27.7154 18.7449 28.126ZM21.8697 35.939C21.8697 36.248 21.778 36.55 21.6063 36.8069C21.4346 37.0639 21.1906 37.2641 20.9051 37.3823C20.6196 37.5005 20.3054 37.5314 20.0024 37.4711C19.6993 37.4108 19.4209 37.262 19.2025 37.0435C18.984 36.825 18.8352 36.5466 18.7749 36.2435C18.7147 35.9404 18.7456 35.6263 18.8639 35.3408C18.9821 35.0553 19.1824 34.8113 19.4393 34.6397C19.6963 34.468 19.9983 34.3764 20.3073 34.3764C20.7213 34.3777 21.118 34.5428 21.4107 34.8356C21.7034 35.1283 21.8684 35.525 21.8697 35.939Z" fill="#393939"/>
</svg>
