<svg width="40" height="40" viewBox="0 0 40 40" fill="none" xmlns="http://www.w3.org/2000/svg">
<path d="M39.9478 1.62404C39.0409 4.64784 37.2673 10.3512 35.1581 16.2889C35.7049 16.4525 36.2054 16.6015 36.6118 16.726C36.789 16.78 36.952 16.8725 37.0892 16.9969C37.2263 17.1213 37.3343 17.2746 37.4052 17.4457C37.4761 17.6167 37.5083 17.8014 37.4995 17.9864C37.4906 18.1714 37.4409 18.3521 37.354 18.5156C35.6268 21.8202 30.8932 30.4533 26.2219 35.2668C26.1438 35.3522 26.0657 35.4621 25.9876 35.5402C23.1332 38.3952 19.2615 39.9995 15.2243 40C11.1871 40.0005 7.31502 38.3973 4.45991 35.543C1.60479 32.6887 0.000517797 28.8171 1.25321e-07 24.78C-0.000517546 20.7429 1.60277 16.8709 4.45715 14.0159C4.53527 13.9378 4.64512 13.8596 4.73057 13.7815C9.54345 9.10115 18.1671 4.37439 21.4799 2.64825C21.6434 2.56128 21.8241 2.51159 22.0091 2.50273C22.194 2.49388 22.3787 2.52609 22.5497 2.59704C22.7208 2.66799 22.874 2.77593 22.9984 2.91311C23.1228 3.05029 23.2153 3.21331 23.2693 3.39046C23.3938 3.78843 23.5427 4.29626 23.7063 4.84316C29.636 2.7337 35.346 0.959948 38.3695 0.0541499C38.588 -0.0119252 38.8202 -0.0176408 39.0417 0.0376095C39.2631 0.0928598 39.4655 0.207016 39.6273 0.367968C39.7891 0.52892 39.9043 0.730667 39.9608 0.951809C40.0172 1.17295 40.0127 1.40524 39.9478 1.62404ZM24.9952 25.0002C24.9949 23.0227 24.4083 21.0896 23.3094 19.4455C22.2105 17.8013 20.6487 16.5199 18.8215 15.7634C16.9944 15.0068 14.9839 14.809 13.0443 15.1949C11.1047 15.5809 9.32317 16.5333 7.92488 17.9318C6.5266 19.3302 5.5744 21.1119 5.18869 23.0514C4.80298 24.991 5.00108 27.0014 5.75794 28.8284C6.51481 30.6554 7.79644 32.217 9.44079 33.3156C11.0851 34.4142 13.0183 35.0006 14.9959 35.0006C16.3092 35.0007 17.6096 34.742 18.8229 34.2395C20.0362 33.7369 21.1386 33.0003 22.0671 32.0716C22.9957 31.143 23.7322 30.0405 24.2346 28.8272C24.737 27.6139 24.9955 26.3135 24.9952 25.0002ZM14.9959 22.5001C14.9959 22.9945 14.8492 23.4778 14.5745 23.8888C14.2998 24.2999 13.9093 24.6202 13.4525 24.8093C12.9957 24.9985 12.4931 25.0479 12.0082 24.9515C11.5233 24.855 11.0779 24.6169 10.7284 24.2672C10.3788 23.9176 10.1407 23.4722 10.0443 22.9873C9.94788 22.5024 9.99741 21.9998 10.1866 21.5431C10.3758 21.0863 10.6962 20.6959 11.1073 20.4213C11.5184 20.1466 12.0017 20 12.4961 20C12.8245 19.9997 13.1498 20.0641 13.4533 20.1896C13.7568 20.3151 14.0325 20.4993 14.2647 20.7315C14.4969 20.9637 14.681 21.2395 14.8065 21.543C14.932 21.8465 14.9964 22.1717 14.9959 22.5001ZM17.4958 28.7504C17.4957 28.9976 17.4224 29.2392 17.285 29.4447C17.1477 29.6502 16.9524 29.8104 16.7241 29.905C16.4957 29.9996 16.2443 30.0243 16.0019 29.976C15.7595 29.9278 15.5368 29.8087 15.362 29.6339C15.1872 29.4591 15.0682 29.2364 15.0199 28.994C14.9717 28.7515 14.9965 28.5002 15.0911 28.2719C15.1857 28.0435 15.3459 27.8483 15.5515 27.711C15.757 27.5736 15.9987 27.5003 16.2459 27.5003C16.577 27.5014 16.8944 27.6335 17.1285 27.8677C17.3627 28.1019 17.4947 28.4192 17.4958 28.7504Z" fill="#393939"/>
</svg>
