<svg width="30" height="30" viewBox="0 0 30 30" fill="none" xmlns="http://www.w3.org/2000/svg">
<path d="M29.9608 1.21803C29.2806 3.48588 27.9505 7.7634 26.3686 12.2167C26.7787 12.3394 27.154 12.4511 27.4589 12.5445C27.5917 12.585 27.714 12.6544 27.8169 12.7477C27.9198 12.841 28.0007 12.9559 28.0539 13.0843C28.1071 13.2126 28.1313 13.351 28.1246 13.4898C28.118 13.6285 28.0807 13.7641 28.0155 13.8867C26.7201 16.3651 23.1699 22.84 19.6665 26.4501C19.6079 26.5142 19.5493 26.5966 19.4907 26.6552C17.3499 28.7964 14.4462 29.9996 11.4182 30C8.39032 30.0004 5.48627 28.798 3.34493 26.6572C1.2036 24.5165 0.000388348 21.6128 9.39909e-08 18.585C-0.00038816 15.5572 1.20208 12.6532 3.34286 10.5119C3.40145 10.4533 3.48384 10.3947 3.54792 10.3361C7.15759 6.82586 13.6253 3.28079 16.1099 1.98619C16.2325 1.92096 16.3681 1.88369 16.5068 1.87705C16.6455 1.87041 16.784 1.89456 16.9123 1.94778C17.0406 2.00099 17.1555 2.08195 17.2488 2.18483C17.3421 2.28772 17.4115 2.40998 17.452 2.54285C17.5453 2.84132 17.657 3.2222 17.7797 3.63237C22.227 2.05028 26.5095 0.719961 28.7771 0.0406124C28.941 -0.0089439 29.1152 -0.0132306 29.2813 0.0282071C29.4473 0.0696448 29.5991 0.155262 29.7205 0.275976C29.8418 0.39669 29.9282 0.548 29.9706 0.713857C30.0129 0.879713 30.0095 1.05393 29.9608 1.21803ZM18.7464 18.7502C18.7462 17.267 18.3062 15.8172 17.482 14.5841C16.6578 13.351 15.4865 12.39 14.1161 11.8225C12.7458 11.2551 11.2379 11.1067 9.78324 11.3962C8.32855 11.6857 6.99238 12.4 5.94366 13.4488C4.89495 14.4977 4.1808 15.8339 3.89152 17.2886C3.60223 18.7433 3.75081 20.2511 4.31846 21.6213C4.88611 22.9916 5.84733 24.1627 7.08059 24.9867C8.31385 25.8107 9.76375 26.2505 11.247 26.2505C12.2319 26.2505 13.2072 26.0565 14.1172 25.6796C15.0271 25.3027 15.8539 24.7502 16.5503 24.0537C17.2467 23.3572 17.7991 22.5304 18.1759 21.6204C18.5527 20.7104 18.7466 19.7351 18.7464 18.7502ZM11.247 16.8751C11.2469 17.2459 11.1369 17.6083 10.9309 17.9166C10.7248 18.2249 10.432 18.4652 10.0894 18.607C9.7468 18.7489 9.36983 18.786 9.00616 18.7136C8.64249 18.6412 8.30845 18.4626 8.04627 18.2004C7.78409 17.9382 7.60555 17.6042 7.53323 17.2405C7.46091 16.8768 7.49806 16.4999 7.63997 16.1573C7.78188 15.8148 8.02219 15.522 8.3305 15.316C8.63881 15.11 9.00129 15 9.37209 15C9.6184 14.9997 9.86235 15.0481 10.09 15.1422C10.3176 15.2363 10.5244 15.3744 10.6985 15.5486C10.8727 15.7228 11.0108 15.9296 11.1049 16.1572C11.199 16.3848 11.2473 16.6288 11.247 16.8751ZM13.1218 21.5628C13.1218 21.7482 13.0668 21.9294 12.9638 22.0835C12.8608 22.2377 12.7143 22.3578 12.543 22.4287C12.3717 22.4997 12.1833 22.5182 12.0014 22.482C11.8196 22.4459 11.6526 22.3566 11.5215 22.2255C11.3904 22.0944 11.3011 21.9273 11.265 21.7455C11.2288 21.5637 11.2474 21.3752 11.3183 21.2039C11.3893 21.0326 11.5094 20.8862 11.6636 20.7832C11.8178 20.6802 11.999 20.6253 12.1844 20.6253C12.4328 20.6261 12.6708 20.7251 12.8464 20.9007C13.022 21.0764 13.121 21.3144 13.1218 21.5628Z" fill="#393939"/>
</svg>
