<svg width="17" height="17" viewBox="0 0 17 17" fill="none" xmlns="http://www.w3.org/2000/svg">
<path d="M0.235279 9.25201L5.90223 16.6883C6.4082 17.3522 7.28523 16.8875 7.28523 15.9358V11.6865H11.8728C12.3214 11.6865 12.6823 11.2129 12.6823 10.6242V6.37488C12.6823 5.78618 12.3214 5.31256 11.8728 5.31256H7.28523V1.06327C7.28523 0.116027 6.41158 -0.353166 5.90223 0.310786L0.235279 7.74705C-0.0784271 8.16313 -0.0784271 8.83593 0.235279 9.25201ZM10.5235 16.467V14.6964C10.5235 14.4043 10.7056 14.1653 10.9283 14.1653H13.7617C14.3588 14.1653 14.8412 13.5323 14.8412 12.7488V4.25024C14.8412 3.46677 14.3588 2.8338 13.7617 2.8338H10.9283C10.7056 2.8338 10.5235 2.59478 10.5235 2.30264V0.532103C10.5235 0.239964 10.7056 0.000941421 10.9283 0.000941421H13.7617C15.5495 0.000941421 17 1.90427 17 4.25024V12.7488C17 15.0948 15.5495 16.9981 13.7617 16.9981H10.9283C10.7056 16.9981 10.5235 16.7591 10.5235 16.467Z" fill="white"/>
</svg>
