<svg width="8" height="8" viewBox="0 0 8 8" fill="none" xmlns="http://www.w3.org/2000/svg">
<path d="M7.25 0H2.25C1.83578 0 1.5 0.335781 1.5 0.75V1.5H0.75C0.335781 1.5 0 1.83578 0 2.25V7.25C0 7.66422 0.335781 8 0.75 8H5.75C6.16422 8 6.5 7.66422 6.5 7.25V6.5H7.25C7.66422 6.5 8 6.16422 8 5.75V0.75C8 0.335781 7.66422 0 7.25 0ZM5.65625 7.25H0.84375C0.818886 7.25 0.79504 7.24012 0.777459 7.22254C0.759877 7.20496 0.75 7.18111 0.75 7.15625V2.34375C0.75 2.31889 0.759877 2.29504 0.777459 2.27746C0.79504 2.25988 0.818886 2.25 0.84375 2.25H1.5V5.75C1.5 6.16422 1.83578 6.5 2.25 6.5H5.75V7.15625C5.75 7.18111 5.74012 7.20496 5.72254 7.22254C5.70496 7.24012 5.68111 7.25 5.65625 7.25ZM7.15625 5.75H2.34375C2.31889 5.75 2.29504 5.74012 2.27746 5.72254C2.25988 5.70496 2.25 5.68111 2.25 5.65625V0.84375C2.25 0.818886 2.25988 0.79504 2.27746 0.777459C2.29504 0.759877 2.31889 0.75 2.34375 0.75H7.15625C7.18111 0.75 7.20496 0.759877 7.22254 0.777459C7.24012 0.79504 7.25 0.818886 7.25 0.84375V5.65625C7.25 5.68111 7.24012 5.70496 7.22254 5.72254C7.20496 5.74012 7.18111 5.75 7.15625 5.75Z" fill="white"/>
</svg>
