<svg width="25" height="16" viewBox="0 0 25 16" fill="none" xmlns="http://www.w3.org/2000/svg">
<path d="M12.1685 4.15082L4.167 9.57464V15.4285C4.167 15.5801 4.24016 15.7254 4.37038 15.8326C4.5006 15.9398 4.67722 16 4.86139 16L9.72473 15.9896C9.90829 15.9889 10.084 15.9283 10.2135 15.8212C10.343 15.7142 10.4156 15.5692 10.4156 15.4181V11.9996C10.4156 11.848 10.4888 11.7026 10.619 11.5954C10.7493 11.4883 10.9259 11.4281 11.11 11.4281H13.8876C14.0718 11.4281 14.2484 11.4883 14.3786 11.5954C14.5088 11.7026 14.582 11.848 14.582 11.9996V15.4156C14.5817 15.4908 14.5995 15.5654 14.6342 15.6349C14.669 15.7044 14.7201 15.7677 14.7846 15.8209C14.8491 15.8742 14.9258 15.9164 15.0101 15.9453C15.0945 15.9741 15.185 15.9889 15.2764 15.9889L20.138 16C20.3222 16 20.4988 15.9398 20.629 15.8326C20.7592 15.7254 20.8324 15.5801 20.8324 15.4285V9.57071L12.8326 4.15082C12.7385 4.08843 12.6214 4.05441 12.5006 4.05441C12.3798 4.05441 12.2626 4.08843 12.1685 4.15082ZM24.8078 7.8373L21.1796 5.37596V0.428619C21.1796 0.314942 21.1247 0.205921 21.027 0.12554C20.9294 0.0451581 20.7969 0 20.6588 0H18.2284C18.0903 0 17.9578 0.0451581 17.8602 0.12554C17.7625 0.205921 17.7076 0.314942 17.7076 0.428619V3.02212L13.8221 0.391115C13.4492 0.138579 12.9813 0.000504822 12.4984 0.000504822C12.0155 0.000504822 11.5476 0.138579 11.1747 0.391115L0.189004 7.8373C0.136268 7.87318 0.0926378 7.91725 0.0606055 7.967C0.0285733 8.01676 0.00876702 8.07122 0.00231847 8.12728C-0.00413009 8.18334 0.00290544 8.23989 0.0230231 8.29371C0.0431407 8.34753 0.0759461 8.39756 0.119565 8.44094L1.22625 9.54821C1.26975 9.59174 1.32326 9.62778 1.3837 9.65428C1.44415 9.68077 1.51035 9.69719 1.57852 9.7026C1.64669 9.708 1.71548 9.70229 1.78096 9.68579C1.84645 9.66929 1.90733 9.64232 1.96013 9.60643L12.1685 2.68637C12.2626 2.62398 12.3798 2.58996 12.5006 2.58996C12.6214 2.58996 12.7385 2.62398 12.8326 2.68637L23.0414 9.60643C23.0941 9.64233 23.1549 9.66933 23.2203 9.68588C23.2857 9.70244 23.3544 9.70823 23.4225 9.70292C23.4906 9.69762 23.5568 9.68132 23.6173 9.65495C23.6777 9.62859 23.7313 9.59268 23.7749 9.54928L24.8815 8.44201C24.9251 8.39838 24.9578 8.34809 24.9777 8.29404C24.9975 8.23998 25.0043 8.18323 24.9974 8.12704C24.9905 8.07084 24.9703 8.01632 24.9377 7.96659C24.9052 7.91687 24.861 7.87293 24.8078 7.8373Z" fill="white"/>
</svg>
