<svg width="19" height="19" viewBox="0 0 19 19" fill="none" xmlns="http://www.w3.org/2000/svg">
<path d="M9.5 0C4.25366 0 0 4.2552 0 9.5C0 14.7479 4.25366 19 9.5 19C14.7463 19 19 14.7479 19 9.5C19 4.2552 14.7463 0 9.5 0ZM9.5 17.1613C5.26591 17.1613 1.83871 13.7355 1.83871 9.5C1.83871 5.26733 5.26606 1.83871 9.5 1.83871C13.7325 1.83871 17.1613 5.26603 17.1613 9.5C17.1613 13.734 13.7355 17.1613 9.5 17.1613ZM13.6081 7.38548C13.6081 9.95401 10.8339 9.99354 10.8339 10.9427V11.1855C10.8339 11.4393 10.6281 11.6452 10.3743 11.6452H8.62569C8.37184 11.6452 8.16602 11.4393 8.16602 11.1855V10.8538C8.16602 9.48452 9.20412 8.93716 9.9886 8.49733C10.6613 8.1202 11.0736 7.8637 11.0736 7.36426C11.0736 6.70363 10.2309 6.26513 9.54961 6.26513C8.66132 6.26513 8.25125 6.68563 7.67481 7.41314C7.5194 7.60927 7.23582 7.6457 7.0364 7.4945L5.97056 6.68631C5.77493 6.53799 5.7311 6.26242 5.86928 6.05951C6.77434 4.7305 7.92714 3.98387 9.72195 3.98387C11.6017 3.98387 13.6081 5.45116 13.6081 7.38548ZM11.1089 13.7903C11.1089 14.6775 10.3871 15.3992 9.5 15.3992C8.61286 15.3992 7.89113 14.6775 7.89113 13.7903C7.89113 12.9032 8.61286 12.1815 9.5 12.1815C10.3871 12.1815 11.1089 12.9032 11.1089 13.7903Z" fill="white"/>
</svg>
