<svg width="248" height="49" viewBox="0 0 248 49" fill="none" xmlns="http://www.w3.org/2000/svg">
<rect y="13" width="38.0952" height="27.4608" rx="4" fill="white"/>
<path d="M10.5156 45.3666L7.99855 40.5215C7.82564 40.1887 8.06717 39.791 8.44225 39.791H14.1056C14.5022 39.791 14.7409 40.2307 14.5249 40.5633L11.3786 45.4084C11.17 45.7297 10.6922 45.7066 10.5156 45.3666Z" fill="white"/>
<rect x="1.90479" y="13.8716" width="38.0952" height="27.4608" rx="4" fill="#9433F5"/>
<path d="M12.4203 46.2387L9.9033 41.3936C9.73039 41.0607 9.97192 40.6631 10.347 40.6631H16.0103C16.407 40.6631 16.6457 41.1028 16.4297 41.4354L13.2834 46.2805C13.0747 46.6018 12.597 46.5787 12.4203 46.2387Z" fill="#9433F5"/>
<path d="M12.6019 34.6152V32.5952L12.3419 32.0952V28.3752C12.3419 27.7752 12.1552 27.3152 11.7819 26.9952C11.4219 26.6619 10.8419 26.4952 10.0419 26.4952C9.5219 26.4952 8.99524 26.5819 8.4619 26.7552C7.92857 26.9152 7.47524 27.1419 7.1019 27.4352L5.8219 24.8552C6.43524 24.4552 7.16857 24.1486 8.0219 23.9352C8.88857 23.7086 9.74857 23.5952 10.6019 23.5952C12.3619 23.5952 13.7219 24.0019 14.6819 24.8152C15.6552 25.6152 16.1419 26.8752 16.1419 28.5952V34.6152H12.6019ZM9.4019 34.7952C8.53524 34.7952 7.8019 34.6486 7.2019 34.3552C6.6019 34.0619 6.1419 33.6619 5.8219 33.1552C5.51524 32.6486 5.3619 32.0819 5.3619 31.4552C5.3619 30.7886 5.52857 30.2152 5.8619 29.7352C6.20857 29.2419 6.73524 28.8686 7.4419 28.6152C8.14857 28.3486 9.0619 28.2152 10.1819 28.2152H12.7419V30.1952H10.7019C10.0886 30.1952 9.65524 30.2952 9.4019 30.4952C9.1619 30.6952 9.0419 30.9619 9.0419 31.2952C9.0419 31.6286 9.16857 31.8952 9.4219 32.0952C9.67524 32.2952 10.0219 32.3952 10.4619 32.3952C10.8752 32.3952 11.2486 32.2952 11.5819 32.0952C11.9286 31.8819 12.1819 31.5619 12.3419 31.1352L12.8619 32.5352C12.6619 33.2819 12.2686 33.8486 11.6819 34.2352C11.1086 34.6086 10.3486 34.7952 9.4019 34.7952Z" fill="white" fill-opacity="0.4"/>
<path d="M25.88 34.8552C24.88 34.8552 24 34.7219 23.24 34.4552C22.48 34.1752 21.8867 33.7752 21.46 33.2552C21.0333 32.7219 20.82 32.0752 20.82 31.3152C20.82 30.5819 21.0333 29.9486 21.46 29.4152C21.9 28.8686 22.5933 28.4419 23.54 28.1352C24.4867 27.8286 25.7267 27.6752 27.26 27.6752H31.5C32.3533 27.6752 33.06 27.7086 33.62 27.7752C34.18 27.8419 34.66 27.9552 35.06 28.1152C35.46 28.2619 35.8333 28.4619 36.18 28.7152C36.58 28.9952 36.8933 29.3686 37.12 29.8352C37.36 30.2886 37.48 30.8086 37.48 31.3952C37.48 32.4752 37.1333 33.3219 36.44 33.9352C35.76 34.5486 34.78 34.8552 33.5 34.8552C33.18 34.8552 32.8133 34.8352 32.4 34.7952C32 34.7686 31.6267 34.7086 31.28 34.6152L31.76 32.5552C31.9467 32.6086 32.1333 32.6486 32.32 32.6752C32.5067 32.6886 32.7067 32.6952 32.92 32.6952C33.48 32.6952 33.9067 32.5819 34.2 32.3552C34.4933 32.1152 34.64 31.7486 34.64 31.2552C34.64 30.9086 34.5467 30.6352 34.36 30.4352C34.1867 30.2219 33.94 30.0619 33.62 29.9552C33.3133 29.8486 32.96 29.7819 32.56 29.7552C32.16 29.7152 31.7467 29.6952 31.32 29.6952H26.9C26.4333 29.6952 25.9867 29.7219 25.56 29.7752C25.1467 29.8152 24.7933 29.9086 24.5 30.0552C24.2467 30.1886 24.06 30.3552 23.94 30.5552C23.82 30.7552 23.76 30.9886 23.76 31.2552C23.76 31.7619 23.9667 32.1352 24.38 32.3752C24.8067 32.6152 25.3733 32.7352 26.08 32.7352C26.6 32.7352 27.04 32.6552 27.4 32.4952C27.7733 32.3219 28.06 32.0286 28.26 31.6152C28.46 31.1886 28.56 30.6019 28.56 29.8552V25.5152H25.54V28.5752L22.86 28.8952V23.3752H35.22V25.5152H31.46V29.8152C31.46 30.7486 31.3667 31.4886 31.18 32.0352C31.0067 32.5686 30.7533 33.0219 30.42 33.3952C29.9267 33.9286 29.2933 34.3086 28.52 34.5352C27.76 34.7486 26.88 34.8552 25.88 34.8552Z" fill="white" fill-opacity="0.4"/>
<line y1="-0.5" x2="17.6137" y2="-0.5" transform="matrix(0.352072 -0.935973 0.953746 0.300613 16.1905 36.4604)" stroke="white" stroke-opacity="0.4"/>
<path d="M51.73 38V10.7H65.692C69.28 10.7 71.958 11.363 73.726 12.689C75.494 13.989 76.378 15.705 76.378 17.837C76.378 19.241 76.001 20.476 75.247 21.542C74.519 22.582 73.479 23.414 72.127 24.038C70.801 24.636 69.215 24.935 67.369 24.935L68.149 23.063C70.073 23.063 71.75 23.362 73.18 23.96C74.61 24.532 75.715 25.377 76.495 26.495C77.301 27.587 77.704 28.926 77.704 30.512C77.704 32.878 76.742 34.724 74.818 36.05C72.92 37.35 70.138 38 66.472 38H51.73ZM59.374 32.423H65.848C67.174 32.423 68.175 32.202 68.851 31.76C69.553 31.292 69.904 30.59 69.904 29.654C69.904 28.718 69.553 28.029 68.851 27.587C68.175 27.119 67.174 26.885 65.848 26.885H58.828V21.542H64.678C65.978 21.542 66.953 21.321 67.603 20.879C68.253 20.437 68.578 19.774 68.578 18.89C68.578 18.006 68.253 17.356 67.603 16.94C66.953 16.498 65.978 16.277 64.678 16.277H59.374V32.423ZM92.4286 38.351C89.9326 38.351 87.7486 37.883 85.8766 36.947C84.0306 35.985 82.5876 34.685 81.5476 33.047C80.5336 31.383 80.0266 29.498 80.0266 27.392C80.0266 25.286 80.5206 23.414 81.5086 21.776C82.5226 20.112 83.9136 18.825 85.6816 17.915C87.4496 16.979 89.4386 16.511 91.6486 16.511C93.7286 16.511 95.6266 16.94 97.3426 17.798C99.0586 18.63 100.424 19.865 101.438 21.503C102.452 23.141 102.959 25.13 102.959 27.47C102.959 27.73 102.946 28.029 102.92 28.367C102.894 28.705 102.868 29.017 102.842 29.303H86.1106V25.403H98.9026L96.0946 26.495C96.1206 25.533 95.9386 24.701 95.5486 23.999C95.1846 23.297 94.6646 22.751 93.9886 22.361C93.3386 21.971 92.5716 21.776 91.6876 21.776C90.8036 21.776 90.0236 21.971 89.3476 22.361C88.6976 22.751 88.1906 23.31 87.8266 24.038C87.4626 24.74 87.2806 25.572 87.2806 26.534V27.665C87.2806 28.705 87.4886 29.602 87.9046 30.356C88.3466 31.11 88.9706 31.695 89.7766 32.111C90.5826 32.501 91.5446 32.696 92.6626 32.696C93.7026 32.696 94.5866 32.553 95.3146 32.267C96.0686 31.955 96.8096 31.487 97.5376 30.863L101.438 34.919C100.424 36.037 99.1756 36.895 97.6936 37.493C96.2116 38.065 94.4566 38.351 92.4286 38.351ZM115.813 38.351C113.109 38.351 111.003 37.688 109.495 36.362C107.987 35.01 107.233 32.982 107.233 30.278V12.143H114.643V30.2C114.643 30.954 114.851 31.552 115.267 31.994C115.683 32.41 116.216 32.618 116.866 32.618C117.75 32.618 118.504 32.397 119.128 31.955L120.961 37.142C120.337 37.558 119.57 37.857 118.66 38.039C117.75 38.247 116.801 38.351 115.813 38.351ZM104.152 23.18V17.642H119.479V23.18H104.152ZM136.727 38V34.061L136.22 33.086V25.832C136.22 24.662 135.856 23.765 135.128 23.141C134.426 22.491 133.295 22.166 131.735 22.166C130.721 22.166 129.694 22.335 128.654 22.673C127.614 22.985 126.73 23.427 126.002 23.999L123.506 18.968C124.702 18.188 126.132 17.59 127.796 17.174C129.486 16.732 131.163 16.511 132.827 16.511C136.259 16.511 138.911 17.304 140.783 18.89C142.681 20.45 143.63 22.907 143.63 26.261V38H136.727ZM130.487 38.351C128.797 38.351 127.367 38.065 126.197 37.493C125.027 36.921 124.13 36.141 123.506 35.153C122.908 34.165 122.609 33.06 122.609 31.838C122.609 30.538 122.934 29.42 123.584 28.484C124.26 27.522 125.287 26.794 126.665 26.3C128.043 25.78 129.824 25.52 132.008 25.52H137V29.381H133.022C131.826 29.381 130.981 29.576 130.487 29.966C130.019 30.356 129.785 30.876 129.785 31.526C129.785 32.176 130.032 32.696 130.526 33.086C131.02 33.476 131.696 33.671 132.554 33.671C133.36 33.671 134.088 33.476 134.738 33.086C135.414 32.67 135.908 32.046 136.22 31.214L137.234 33.944C136.844 35.4 136.077 36.505 134.933 37.259C133.815 37.987 132.333 38.351 130.487 38.351ZM162.27 38.546C160.112 38.546 158.11 38.208 156.264 37.532C154.444 36.83 152.858 35.842 151.506 34.568C150.18 33.294 149.14 31.799 148.386 30.083C147.632 28.341 147.255 26.43 147.255 24.35C147.255 22.27 147.632 20.372 148.386 18.656C149.14 16.914 150.18 15.406 151.506 14.132C152.858 12.858 154.444 11.883 156.264 11.207C158.11 10.505 160.112 10.154 162.27 10.154C164.792 10.154 167.041 10.596 169.017 11.48C171.019 12.364 172.683 13.638 174.009 15.302L169.095 19.748C168.211 18.708 167.236 17.915 166.17 17.369C165.13 16.823 163.96 16.55 162.66 16.55C161.542 16.55 160.515 16.732 159.579 17.096C158.643 17.46 157.837 17.993 157.161 18.695C156.511 19.371 155.991 20.19 155.601 21.152C155.237 22.114 155.055 23.18 155.055 24.35C155.055 25.52 155.237 26.586 155.601 27.548C155.991 28.51 156.511 29.342 157.161 30.044C157.837 30.72 158.643 31.24 159.579 31.604C160.515 31.968 161.542 32.15 162.66 32.15C163.96 32.15 165.13 31.877 166.17 31.331C167.236 30.785 168.211 29.992 169.095 28.952L174.009 33.398C172.683 35.036 171.019 36.31 169.017 37.22C167.041 38.104 164.792 38.546 162.27 38.546ZM190.868 16.511C192.506 16.511 193.988 16.849 195.314 17.525C196.64 18.175 197.68 19.189 198.434 20.567C199.214 21.945 199.604 23.726 199.604 25.91V38H192.194V27.119C192.194 25.611 191.882 24.519 191.258 23.843C190.66 23.141 189.815 22.79 188.723 22.79C187.943 22.79 187.228 22.972 186.578 23.336C185.928 23.674 185.421 24.207 185.057 24.935C184.693 25.663 184.511 26.612 184.511 27.782V38H177.101V9.062H184.511V22.868L182.795 21.113C183.601 19.579 184.706 18.435 186.11 17.681C187.514 16.901 189.1 16.511 190.868 16.511ZM217.165 38V34.061L216.658 33.086V25.832C216.658 24.662 216.294 23.765 215.566 23.141C214.864 22.491 213.733 22.166 212.173 22.166C211.159 22.166 210.132 22.335 209.092 22.673C208.052 22.985 207.168 23.427 206.44 23.999L203.944 18.968C205.14 18.188 206.57 17.59 208.234 17.174C209.924 16.732 211.601 16.511 213.265 16.511C216.697 16.511 219.349 17.304 221.221 18.89C223.119 20.45 224.068 22.907 224.068 26.261V38H217.165ZM210.925 38.351C209.235 38.351 207.805 38.065 206.635 37.493C205.465 36.921 204.568 36.141 203.944 35.153C203.346 34.165 203.047 33.06 203.047 31.838C203.047 30.538 203.372 29.42 204.022 28.484C204.698 27.522 205.725 26.794 207.103 26.3C208.481 25.78 210.262 25.52 212.446 25.52H217.438V29.381H213.46C212.264 29.381 211.419 29.576 210.925 29.966C210.457 30.356 210.223 30.876 210.223 31.526C210.223 32.176 210.47 32.696 210.964 33.086C211.458 33.476 212.134 33.671 212.992 33.671C213.798 33.671 214.526 33.476 215.176 33.086C215.852 32.67 216.346 32.046 216.658 31.214L217.672 33.944C217.282 35.4 216.515 36.505 215.371 37.259C214.253 37.987 212.771 38.351 210.925 38.351ZM238.183 38.351C235.479 38.351 233.373 37.688 231.865 36.362C230.357 35.01 229.603 32.982 229.603 30.278V12.143H237.013V30.2C237.013 30.954 237.221 31.552 237.637 31.994C238.053 32.41 238.586 32.618 239.236 32.618C240.12 32.618 240.874 32.397 241.498 31.955L243.331 37.142C242.707 37.558 241.94 37.857 241.03 38.039C240.12 38.247 239.171 38.351 238.183 38.351ZM226.522 23.18V17.642H241.849V23.18H226.522Z" fill="white"/>
<path d="M55.73 39V11.7H69.692C73.28 11.7 75.958 12.363 77.726 13.689C79.494 14.989 80.378 16.705 80.378 18.837C80.378 20.241 80.001 21.476 79.247 22.542C78.519 23.582 77.479 24.414 76.127 25.038C74.801 25.636 73.215 25.935 71.369 25.935L72.149 24.063C74.073 24.063 75.75 24.362 77.18 24.96C78.61 25.532 79.715 26.377 80.495 27.495C81.301 28.587 81.704 29.926 81.704 31.512C81.704 33.878 80.742 35.724 78.818 37.05C76.92 38.35 74.138 39 70.472 39H55.73ZM63.374 33.423H69.848C71.174 33.423 72.175 33.202 72.851 32.76C73.553 32.292 73.904 31.59 73.904 30.654C73.904 29.718 73.553 29.029 72.851 28.587C72.175 28.119 71.174 27.885 69.848 27.885H62.828V22.542H68.678C69.978 22.542 70.953 22.321 71.603 21.879C72.253 21.437 72.578 20.774 72.578 19.89C72.578 19.006 72.253 18.356 71.603 17.94C70.953 17.498 69.978 17.277 68.678 17.277H63.374V33.423ZM96.4286 39.351C93.9326 39.351 91.7486 38.883 89.8766 37.947C88.0306 36.985 86.5876 35.685 85.5476 34.047C84.5336 32.383 84.0266 30.498 84.0266 28.392C84.0266 26.286 84.5206 24.414 85.5086 22.776C86.5226 21.112 87.9136 19.825 89.6816 18.915C91.4496 17.979 93.4386 17.511 95.6486 17.511C97.7286 17.511 99.6266 17.94 101.343 18.798C103.059 19.63 104.424 20.865 105.438 22.503C106.452 24.141 106.959 26.13 106.959 28.47C106.959 28.73 106.946 29.029 106.92 29.367C106.894 29.705 106.868 30.017 106.842 30.303H90.1106V26.403H102.903L100.095 27.495C100.121 26.533 99.9386 25.701 99.5486 24.999C99.1846 24.297 98.6646 23.751 97.9886 23.361C97.3386 22.971 96.5716 22.776 95.6876 22.776C94.8036 22.776 94.0236 22.971 93.3476 23.361C92.6976 23.751 92.1906 24.31 91.8266 25.038C91.4626 25.74 91.2806 26.572 91.2806 27.534V28.665C91.2806 29.705 91.4886 30.602 91.9046 31.356C92.3466 32.11 92.9706 32.695 93.7766 33.111C94.5826 33.501 95.5446 33.696 96.6626 33.696C97.7026 33.696 98.5866 33.553 99.3146 33.267C100.069 32.955 100.81 32.487 101.538 31.863L105.438 35.919C104.424 37.037 103.176 37.895 101.694 38.493C100.212 39.065 98.4566 39.351 96.4286 39.351ZM119.813 39.351C117.109 39.351 115.003 38.688 113.495 37.362C111.987 36.01 111.233 33.982 111.233 31.278V13.143H118.643V31.2C118.643 31.954 118.851 32.552 119.267 32.994C119.683 33.41 120.216 33.618 120.866 33.618C121.75 33.618 122.504 33.397 123.128 32.955L124.961 38.142C124.337 38.558 123.57 38.857 122.66 39.039C121.75 39.247 120.801 39.351 119.813 39.351ZM108.152 24.18V18.642H123.479V24.18H108.152ZM140.727 39V35.061L140.22 34.086V26.832C140.22 25.662 139.856 24.765 139.128 24.141C138.426 23.491 137.295 23.166 135.735 23.166C134.721 23.166 133.694 23.335 132.654 23.673C131.614 23.985 130.73 24.427 130.002 24.999L127.506 19.968C128.702 19.188 130.132 18.59 131.796 18.174C133.486 17.732 135.163 17.511 136.827 17.511C140.259 17.511 142.911 18.304 144.783 19.89C146.681 21.45 147.63 23.907 147.63 27.261V39H140.727ZM134.487 39.351C132.797 39.351 131.367 39.065 130.197 38.493C129.027 37.921 128.13 37.141 127.506 36.153C126.908 35.165 126.609 34.06 126.609 32.838C126.609 31.538 126.934 30.42 127.584 29.484C128.26 28.522 129.287 27.794 130.665 27.3C132.043 26.78 133.824 26.52 136.008 26.52H141V30.381H137.022C135.826 30.381 134.981 30.576 134.487 30.966C134.019 31.356 133.785 31.876 133.785 32.526C133.785 33.176 134.032 33.696 134.526 34.086C135.02 34.476 135.696 34.671 136.554 34.671C137.36 34.671 138.088 34.476 138.738 34.086C139.414 33.67 139.908 33.046 140.22 32.214L141.234 34.944C140.844 36.4 140.077 37.505 138.933 38.259C137.815 38.987 136.333 39.351 134.487 39.351ZM166.27 39.546C164.112 39.546 162.11 39.208 160.264 38.532C158.444 37.83 156.858 36.842 155.506 35.568C154.18 34.294 153.14 32.799 152.386 31.083C151.632 29.341 151.255 27.43 151.255 25.35C151.255 23.27 151.632 21.372 152.386 19.656C153.14 17.914 154.18 16.406 155.506 15.132C156.858 13.858 158.444 12.883 160.264 12.207C162.11 11.505 164.112 11.154 166.27 11.154C168.792 11.154 171.041 11.596 173.017 12.48C175.019 13.364 176.683 14.638 178.009 16.302L173.095 20.748C172.211 19.708 171.236 18.915 170.17 18.369C169.13 17.823 167.96 17.55 166.66 17.55C165.542 17.55 164.515 17.732 163.579 18.096C162.643 18.46 161.837 18.993 161.161 19.695C160.511 20.371 159.991 21.19 159.601 22.152C159.237 23.114 159.055 24.18 159.055 25.35C159.055 26.52 159.237 27.586 159.601 28.548C159.991 29.51 160.511 30.342 161.161 31.044C161.837 31.72 162.643 32.24 163.579 32.604C164.515 32.968 165.542 33.15 166.66 33.15C167.96 33.15 169.13 32.877 170.17 32.331C171.236 31.785 172.211 30.992 173.095 29.952L178.009 34.398C176.683 36.036 175.019 37.31 173.017 38.22C171.041 39.104 168.792 39.546 166.27 39.546ZM194.868 17.511C196.506 17.511 197.988 17.849 199.314 18.525C200.64 19.175 201.68 20.189 202.434 21.567C203.214 22.945 203.604 24.726 203.604 26.91V39H196.194V28.119C196.194 26.611 195.882 25.519 195.258 24.843C194.66 24.141 193.815 23.79 192.723 23.79C191.943 23.79 191.228 23.972 190.578 24.336C189.928 24.674 189.421 25.207 189.057 25.935C188.693 26.663 188.511 27.612 188.511 28.782V39H181.101V10.062H188.511V23.868L186.795 22.113C187.601 20.579 188.706 19.435 190.11 18.681C191.514 17.901 193.1 17.511 194.868 17.511ZM221.165 39V35.061L220.658 34.086V26.832C220.658 25.662 220.294 24.765 219.566 24.141C218.864 23.491 217.733 23.166 216.173 23.166C215.159 23.166 214.132 23.335 213.092 23.673C212.052 23.985 211.168 24.427 210.44 24.999L207.944 19.968C209.14 19.188 210.57 18.59 212.234 18.174C213.924 17.732 215.601 17.511 217.265 17.511C220.697 17.511 223.349 18.304 225.221 19.89C227.119 21.45 228.068 23.907 228.068 27.261V39H221.165ZM214.925 39.351C213.235 39.351 211.805 39.065 210.635 38.493C209.465 37.921 208.568 37.141 207.944 36.153C207.346 35.165 207.047 34.06 207.047 32.838C207.047 31.538 207.372 30.42 208.022 29.484C208.698 28.522 209.725 27.794 211.103 27.3C212.481 26.78 214.262 26.52 216.446 26.52H221.438V30.381H217.46C216.264 30.381 215.419 30.576 214.925 30.966C214.457 31.356 214.223 31.876 214.223 32.526C214.223 33.176 214.47 33.696 214.964 34.086C215.458 34.476 216.134 34.671 216.992 34.671C217.798 34.671 218.526 34.476 219.176 34.086C219.852 33.67 220.346 33.046 220.658 32.214L221.672 34.944C221.282 36.4 220.515 37.505 219.371 38.259C218.253 38.987 216.771 39.351 214.925 39.351ZM242.183 39.351C239.479 39.351 237.373 38.688 235.865 37.362C234.357 36.01 233.603 33.982 233.603 31.278V13.143H241.013V31.2C241.013 31.954 241.221 32.552 241.637 32.994C242.053 33.41 242.586 33.618 243.236 33.618C244.12 33.618 244.874 33.397 245.498 32.955L247.331 38.142C246.707 38.558 245.94 38.857 245.03 39.039C244.12 39.247 243.171 39.351 242.183 39.351ZM230.522 24.18V18.642H245.849V24.18H230.522Z" fill="#9433F5"/>
</svg>
