<svg width="30" height="24" viewBox="0 0 30 24" fill="none" xmlns="http://www.w3.org/2000/svg">
<path d="M7.05626 23.119L5.12788 19.6583C4.9954 19.4205 5.18045 19.1365 5.46781 19.1365H9.80666C10.1105 19.1365 10.2934 19.4505 10.1279 19.6881L7.71743 23.1489C7.55762 23.3784 7.19156 23.3619 7.05626 23.119Z" fill="white"/>
<path d="M26.5806 0.622559H3.52374C1.83126 0.622559 0.459229 1.90174 0.459229 3.4797V17.3803C0.459229 18.9582 1.83126 20.2374 3.52374 20.2374H26.5806C28.273 20.2374 29.6451 18.9582 29.6451 17.3803V3.4797C29.6451 1.90174 28.273 0.622559 26.5806 0.622559Z" fill="#9433F5"/>
<path d="M8.51545 23.7421L6.5871 20.2813C6.45463 20.0435 6.63968 19.7595 6.92704 19.7595H11.2659C11.5698 19.7595 11.7527 20.0736 11.5872 20.3112L9.1767 23.7719C9.01681 24.0014 8.65083 23.9849 8.51545 23.7421Z" fill="#9433F5"/>
<path d="M8.65468 15.4395V13.9967L8.45549 13.6395V10.9824C8.45549 10.5538 8.31245 10.2253 8.02646 9.99669C7.75065 9.75862 7.3063 9.63954 6.69339 9.63954C6.29501 9.63954 5.89152 9.70147 5.48291 9.82526C5.07431 9.93954 4.727 10.1015 4.44097 10.311L3.46033 8.46812C3.93023 8.1824 4.49205 7.9634 5.14581 7.81097C5.80979 7.64912 6.46867 7.56812 7.12243 7.56812C8.47081 7.56812 9.51275 7.85862 10.2482 8.43954C10.9939 9.01097 11.3668 9.91097 11.3668 11.1395V15.4395H8.65468ZM6.20307 15.5681C5.5391 15.5681 4.97727 15.4634 4.51759 15.2538C4.05791 15.0443 3.70549 14.7586 3.46033 14.3967C3.22539 14.0348 3.10791 13.63 3.10791 13.1824C3.10791 12.7063 3.2356 12.2967 3.49097 11.9538C3.75657 11.6015 4.16007 11.3348 4.70146 11.1538C5.24286 10.9634 5.94259 10.8681 6.80065 10.8681H8.76194V12.2824H7.19904C6.72917 12.2824 6.39716 12.3538 6.20307 12.4967C6.0192 12.6395 5.92726 12.83 5.92726 13.0681C5.92726 13.3063 6.02431 13.4967 6.21839 13.6395C6.41249 13.7824 6.67807 13.8538 7.01517 13.8538C7.33181 13.8538 7.61788 13.7824 7.87323 13.6395C8.13885 13.4872 8.33291 13.2586 8.45549 12.9538L8.85388 13.9538C8.70065 14.4872 8.39933 14.892 7.94985 15.1681C7.51062 15.4348 6.92837 15.5681 6.20307 15.5681Z" fill="white" fill-opacity="0.4"/>
<path d="M18.8273 15.6109C18.0612 15.6109 17.387 15.5157 16.8047 15.3252C16.2225 15.1252 15.7679 14.8395 15.441 14.468C15.1141 14.0871 14.9507 13.6252 14.9507 13.0823C14.9507 12.5585 15.1141 12.1062 15.441 11.7252C15.7781 11.3347 16.3093 11.03 17.0346 10.8109C17.7598 10.5919 18.7098 10.4823 19.8846 10.4823H23.1329C23.7867 10.4823 24.3281 10.5062 24.7571 10.5537C25.1862 10.6014 25.5539 10.6823 25.8604 10.7966C26.1668 10.9014 26.4528 11.0442 26.7184 11.2252C27.0249 11.4252 27.2649 11.6919 27.4386 12.0252C27.6225 12.349 27.7144 12.7205 27.7144 13.1395C27.7144 13.9109 27.4488 14.5157 26.9176 14.9537C26.3967 15.3919 25.6458 15.6109 24.6652 15.6109C24.42 15.6109 24.1391 15.5966 23.8225 15.568C23.516 15.549 23.23 15.5062 22.9644 15.4395L23.3321 13.968C23.4752 14.0062 23.6181 14.0347 23.7612 14.0537C23.9042 14.0633 24.0574 14.068 24.2208 14.068C24.6499 14.068 24.9768 13.9871 25.2015 13.8252C25.4262 13.6537 25.5386 13.3919 25.5386 13.0395C25.5386 12.7919 25.4671 12.5966 25.3241 12.4537C25.1913 12.3014 25.0023 12.1871 24.7571 12.1109C24.5222 12.0347 24.2515 11.9871 23.945 11.968C23.6386 11.9395 23.3219 11.9252 22.995 11.9252H19.6087C19.2512 11.9252 18.909 11.9442 18.5821 11.9823C18.2655 12.0109 17.9947 12.0776 17.77 12.1823C17.576 12.2776 17.4329 12.3966 17.341 12.5395C17.2491 12.6823 17.2031 12.849 17.2031 13.0395C17.2031 13.4014 17.3615 13.668 17.6781 13.8395C18.005 14.0109 18.4391 14.0966 18.9805 14.0966C19.3789 14.0966 19.716 14.0395 19.9918 13.9252C20.2778 13.8014 20.4975 13.5919 20.6507 13.2966C20.8039 12.9919 20.8805 12.5728 20.8805 12.0395V8.93946H18.5668V11.1252L16.5136 11.3537V7.41089H25.9829V8.93946H23.1023V12.0109C23.1023 12.6776 23.0308 13.2062 22.8878 13.5966C22.755 13.9776 22.5609 14.3014 22.3055 14.568C21.9276 14.949 21.4423 15.2205 20.8499 15.3823C20.2676 15.5347 19.5934 15.6109 18.8273 15.6109Z" fill="white" fill-opacity="0.4"/>
<path d="M12 16.7756L16.751 4.99996" stroke="white" stroke-opacity="0.4"/>
</svg>
