<svg width="20" height="20" viewBox="0 0 20 20" fill="none" xmlns="http://www.w3.org/2000/svg">
<path fill-rule="evenodd" clip-rule="evenodd" d="M10 4H16C17.105 4 18 4.895 18 6V16.586L15.707 14.293C15.52 14.105 15.265 14 15 14H6C4.895 14 4 13.105 4 12V10H2V12C2 14.209 3.791 16 6 16H14.586L18.293 19.707C18.579 19.993 19.009 20.079 19.383 19.924C19.756 19.769 20 19.404 20 19V6C20 3.791 18.209 2 16 2H10V4ZM6.032 7.446L9.293 10.707L10.707 9.293L7.446 6.032C7.798 5.436 8 4.741 8 4C8 1.792 6.208 0 4 0C1.792 0 0 1.792 0 4C0 6.208 1.792 8 4 8C4.741 8 5.436 7.798 6.032 7.446ZM4 2C5.104 2 6 2.896 6 4C6 5.104 5.104 6 4 6C2.896 6 2 5.104 2 4C2 2.896 2.896 2 4 2Z" fill="white"/>
</svg>
