<svg width="22" height="15" viewBox="0 0 22 15" fill="none" xmlns="http://www.w3.org/2000/svg">
<path d="M15.8889 5.35714C15.8889 2.39732 12.333 0 7.94444 0C3.5559 0 0 2.39732 0 5.35714C0 6.50558 0.538542 7.56362 1.45139 8.4375C0.939583 9.44866 0.0954861 10.2522 0.0840278 10.2623C0 10.3393 -0.0229167 10.4531 0.0267361 10.5536C0.0763889 10.654 0.183333 10.7143 0.305556 10.7143C1.70347 10.7143 2.86076 10.3025 3.6934 9.87723C4.92326 10.4029 6.37847 10.7143 7.94444 10.7143C12.333 10.7143 15.8889 8.31696 15.8889 5.35714ZM20.5486 12.7232C21.4615 11.8527 22 10.7913 22 9.64286C22 7.4029 19.9566 5.48437 17.0615 4.68415C17.0958 4.90513 17.1111 5.12946 17.1111 5.35714C17.1111 8.9029 12.9976 11.7857 7.94444 11.7857C7.53194 11.7857 7.1309 11.7589 6.73368 11.7221C7.93681 13.6473 10.7632 15 14.0556 15C15.6215 15 17.0767 14.692 18.3066 14.1629C19.1392 14.5882 20.2965 15 21.6944 15C21.8167 15 21.9274 14.9364 21.9733 14.8393C22.0229 14.7422 22 14.6283 21.916 14.548C21.9045 14.5379 21.0604 13.7377 20.5486 12.7232Z" fill="white"/>
</svg>
