<svg width="29" height="22" viewBox="0 0 29 22" fill="none" xmlns="http://www.w3.org/2000/svg">
<path d="M28.6056 19.0204L22.9581 14.7368C22.7032 14.5435 22.3577 14.4361 21.9952 14.4361H21.0719C22.6353 12.9194 23.5642 11.0118 23.5642 8.93663C23.5642 4 18.2906 0 11.7821 0C5.27363 0 0 4 0 8.93663C0 13.8733 5.27363 17.8733 11.7821 17.8733C14.5181 17.8733 17.0331 17.1686 19.0326 15.9828V16.6831C19.0326 16.9581 19.1743 17.2202 19.4292 17.4135L25.0766 21.6971C25.6091 22.101 26.4701 22.101 26.9969 21.6971L28.5999 20.4812C29.1324 20.0773 29.1324 19.4243 28.6056 19.0204ZM11.7821 14.4361C7.77733 14.4361 4.53158 11.9785 4.53158 8.93663C4.53158 5.89903 7.77166 3.43716 11.7821 3.43716C15.7869 3.43716 19.0326 5.89474 19.0326 8.93663C19.0326 11.9742 15.7926 14.4361 11.7821 14.4361Z" fill="white"/>
</svg>
