<svg width="70" height="70" viewBox="0 0 70 70" fill="none" xmlns="http://www.w3.org/2000/svg">
<circle cx="35" cy="35" r="35" fill="#2D2D2D"/>
<path d="M50 29.3447C50 36.1624 45.5368 41.6892 40.0312 41.6892C39.3957 41.6892 38.7744 41.6147 38.1719 41.474L36.8119 43.3687C36.6843 43.5464 36.5278 43.6886 36.3527 43.786C36.1776 43.8834 35.9878 43.9337 35.7958 43.9337H33.6875V46.7393C33.6875 47.669 33.0789 48.4227 32.3281 48.4227H30.0625V51.2283C30.0625 52.158 29.4539 52.9116 28.7031 52.9116H22.3594C21.6086 52.9116 21 52.158 21 51.2283V45.7532C21 45.3068 21.1432 44.8786 21.3981 44.5629L30.5627 33.2141C30.2385 31.9969 30.0625 30.6963 30.0625 29.3446C30.0625 22.5269 34.5256 17.0001 40.0312 17C45.553 16.9999 50 22.5068 50 29.3447ZM40.0312 25.9779C40.0312 27.8373 41.2485 29.3446 42.75 29.3446C44.2515 29.3446 45.4688 27.8373 45.4688 25.9779C45.4688 24.1185 44.2515 22.6112 42.75 22.6112C41.2485 22.6112 40.0312 24.1185 40.0312 25.9779Z" fill="white"/>
</svg>
