<svg width="70" height="70" viewBox="0 0 70 70" fill="none" xmlns="http://www.w3.org/2000/svg">
<circle cx="35" cy="35" r="35" fill="#2D2D2D"/>
<path d="M42.9937 38.076L44.4875 33.9994C44.7375 33.3157 44.2562 32.5863 43.55 32.5863H39.8937C40.5812 31.3555 41.0063 29.9424 41.0063 28.4185V28.399C43.4563 27.891 45.0063 27.1551 45.0063 26.3346C45.0063 25.4685 43.3 24.7001 40.625 24.1856C40.05 22.0496 38.9375 19.9006 38.0875 18.7935C37.4937 18.0186 36.4688 17.7776 35.6187 18.2205L33.8938 19.1191C33.3313 19.4122 32.6687 19.4122 32.1062 19.1191L30.3813 18.2205C29.5312 17.7776 28.5063 18.0186 27.9125 18.7935C27.0688 19.9006 25.95 22.0496 25.375 24.1856C22.7062 24.7001 21 25.4685 21 26.3346C21 27.1551 22.55 27.891 25 28.399V28.4185C25 29.9424 25.425 31.3555 26.1125 32.5863H22.5187C21.8 32.5863 21.3187 33.3482 21.6 34.0385L23.2125 37.9588C20.7063 39.4762 19 42.2699 19 45.5064V48.4239C19 50.0324 20.2562 51.3413 21.8 51.3413H44.2C45.7438 51.3413 47 50.0324 47 48.4239V45.5064C47 42.3545 45.3875 39.6194 42.9937 38.076ZM30 49.2574L27.4 36.7541L30.5 38.838L32 41.4428L30 49.2574ZM36 49.2574L34 41.4428L35.5 38.838L38.6 36.7541L36 49.2574ZM38.6063 29.8186C38.3625 30.5936 38.1688 31.4206 37.575 31.9937C36.9438 32.5993 34.575 33.4524 33.575 30.3656C33.4 29.8186 32.6125 29.8186 32.4312 30.3656C31.3687 33.6347 28.9312 32.4756 28.4312 31.9937C27.8375 31.4206 27.6375 30.5936 27.4 29.8186C27.35 29.6558 27.0063 29.4474 27.0063 29.4409V28.7376C28.775 28.972 30.8188 29.1153 33.0063 29.1153C35.1938 29.1153 37.2375 28.9786 39.0063 28.7376V29.4409C39 29.4474 38.6562 29.6493 38.6063 29.8186Z" fill="white"/>
</svg>
